<svg width="38" height="51" viewBox="0 0 38 51" fill="none" xmlns="http://www.w3.org/2000/svg">
<path d="M7.69824 20.293V13.6811C7.69824 10.6836 8.889 7.80886 11.0085 5.68931C13.1281 3.56977 16.0028 2.37902 19.0003 2.37902C21.9926 2.38693 24.8596 3.58117 26.9727 5.69986C29.0858 7.81855 30.2725 10.6887 30.2725 13.6811V20.293" stroke="black" stroke-width="3" stroke-miterlimit="10"/>
<path d="M1.34375 29.1728C1.34375 24.3604 5.22465 20.3185 10.2514 19.5241H27.7636C32.7709 20.3189 36.6716 24.3625 36.6716 29.1728V40.0705C36.6699 42.4073 35.7408 44.6479 34.0884 46.3003C32.4361 47.9527 30.1955 48.8818 27.8586 48.8835H10.1558C7.81868 48.8835 5.57729 47.9551 3.92472 46.3025C2.27215 44.6499 1.34375 42.4086 1.34375 40.0714V29.1728Z" stroke="black" stroke-width="2.5"/>
<path d="M21.5174 38.9958C21.5174 40.1984 20.3297 43.3881 19.127 43.3881C17.9244 43.3881 17.1699 40.1984 17.1699 38.9958C17.1778 38.4245 17.4103 37.8792 17.8171 37.478C18.2239 37.0768 18.7723 36.8518 19.3437 36.8519C19.9151 36.8518 20.4635 37.0768 20.8703 37.478C21.2771 37.8792 21.5096 38.4245 21.5174 38.9958V38.9958Z" fill="black"/>
</svg>
